<svg xmlns="http://www.w3.org/2000/svg" viewBox="0 0 512 512"><path d="M235 1.02C38.935 19.43-65.242 238.306 45.099 400c90.353 132.402 278.032 149.914 391.423 36.522 42.96-42.96 70.672-102.482 74.154-159.272.345-5.638 1.01-10.25 1.476-10.25.466 0 .841-5.512.833-12.25-.009-6.875-.379-11.676-.845-10.943-.488.771-1.089-2.926-1.461-9-4.99-81.403-56.806-161.294-131.468-202.697C336.437 8.39 281.846-3.379 235 1.02m-9.5 37.663C142.625 49.781 70.196 109.984 43.614 189.869 4.837 306.398 65.835 430.017 182.075 470.478l9.925 3.455v-47.166l-2.25.601c-13.947 3.724-36.437 3.217-48.974-1.105-17.344-5.978-26.159-14.393-36.061-34.425-8.553-17.302-14.904-25.54-26.216-34.009-4.9-3.669-9.493-7.468-10.205-8.441-5.584-7.638 9.408-11.024 23.762-5.366 10.957 4.319 18.445 10.944 27.669 24.478 14.108 20.702 33.901 28.9 57.839 23.955 13.948-2.881 15.809-4.147 17.328-11.788 1.663-8.366 5.877-17.298 10.656-22.589 4.492-4.971 4.88-4.551-5.548-6.01-66.04-9.239-99.597-42.472-105.947-104.924-3.481-34.231 2.321-59.553 18.59-81.144l5.652-7.5-1.787-8.5c-3.748-17.833-2.818-35.964 2.733-53.283 2.598-8.106 3.488-8.519 14.526-6.738 14.251 2.298 31.858 9.469 49.233 20.049l8.5 5.176 14-2.582c37.206-6.86 72.562-6.867 103.285-.021l11.285 2.515 11.296-6.559c19.48-11.312 36.758-17.82 50.634-19.07 7.956-.717 8.184-.56 10.854 7.526 5.647 17.095 6.837 36.918 3.105 51.678l-2.042 8.072 5.65 7.869c20.351 28.343 25.012 68.088 12.892 109.914-12.453 42.972-47.652 69.579-100.459 75.937-9.528 1.147-9.471 1.088-5.699 5.837C318.405 371.558 320 380.801 320 435.724c0 25.158.355 39.276.986 39.276 5.588 0 40.689-16.406 54.885-25.652 53.969-35.154 88.5-86.25 100.828-149.199 5.163-26.363 3.817-65.472-3.208-93.184-22.618-89.228-98.168-156.772-188.333-168.377-15.371-1.978-44.523-1.932-59.658.095M.385 256c0 6.875.16 9.688.355 6.25.196-3.437.196-9.062 0-12.5-.195-3.437-.355-.625-.355 6.25" fill-rule="evenodd"/></svg>