<svg xmlns="http://www.w3.org/2000/svg" viewBox="0 0 1024 1024"><path fill="#68bac3" d="M277.5 133.088c-64.575 7.646-125.958 63.858-141.978 130.017-4.617 19.071-4.662 21.69-4.306 252.395l.336 218 2.159 9.313c17.118 73.85 64.604 121.501 137.289 137.765 5.925 1.326 15.269 1.809 44.5 2.3 29.32.493 33.99.735 22.5 1.167-12.566.472-11.365.553 9 .608 12.925.035 27.848.628 33.163 1.318 5.314.69 10.264 1.014 11 .72.735-.293-.688-.641-3.163-.774-5.194-.278 10.733-1.631 21.25-1.805 9.367-.155 8.513 1.719-1 2.194-4.262.213-3.475.23 1.75.038a4245.07 4245.07 0 0 0 23.75-.972c9.726-.426 14.25-.289 14.25.432 0 .702 5.768 1.032 17.25.985 9.488-.038 30.912.277 47.611.7 19.491.494 30.59.421 31-.205.862-1.315 8.139-2.407 8.139-1.221 0 1.301 27.048 1.189 36.678-.153 4.302-.599 23.122-1.227 41.822-1.394 65.797-.589 113.363-2.12 121.399-3.906 4.07-.905 7.587-1.457 7.817-1.227.23.23 2.923-.462 5.985-1.538 3.061-1.076 6.204-1.712 6.985-1.412.784.301 1.145.102.807-.444-.336-.544.038-.989.832-.989 2.272 0 20.23-7.681 30.681-13.123 44.346-23.091 76.813-68.213 86.615-120.377 2.424-12.899 2.983-456 .591-469-1.512-8.224-6.381-24.492-9.877-33-5.957-14.499-20.619-39.061-22.59-37.842-.58.358-.773.197-.43-.359 2.469-3.995-44.919-47.299-51.76-47.299-.327 0-2.301-1.077-4.386-2.393-12.276-7.75-39.144-16.714-55.593-18.548-11.471-1.279-459.261-1.251-470.076.029m-1 46.057c-17.003 2.167-39.727 10.77-44.999 17.036-4.952 5.885-3.058 6.161 9.793 1.427 23.162-8.533 30.104-9.876 51.706-10.004l17.5-.104.162 12.457c.121 9.32-.194 12.965-1.25 14.472-.777 1.109-1.412 3.243-1.412 4.744 0 2.614-.235 2.74-5.68 3.027l-5.679.3.257 6.994c.306 8.304-.332 7.43 5.966 8.176l5.136.609V246.722l5.844.53c11.042 1.001 11.156.906 11.156-9.369V229h-6c-4.513 0-6-.352-6-1.418 0-.78-.273-2.13-.607-3-.447-1.165.015-1.586 1.75-1.597 5.554-.036 7.936-6.576 3.463-9.507-2.576-1.688-2.606-1.851-2.606-14.093V187h106v4.846c0 2.666.277 8.853.615 13.75l.615 8.904-14.865 5.852c-42.292 16.651-73.954 37.901-106.578 71.53l-15.714 16.197-45.101-.059-45.101-.059-2.404-2.73c-2.394-2.72-2.404-2.825-2.435-26.859-.034-25.96-.223-26.908-5.227-26.199-2.977.422-3.734 7.113-3.621 32.026l.079 17.699-2.631 3.128c-3.495 4.154-3.392 7.949.324 11.927l2.957 3.165.057 210.13c.053 196.122.328 225.363 2.054 218.752.546-2.089 1.032-1.266 2.956 5 1.267 4.125 2.517 6.893 2.778 6.151.261-.741-.102-2.425-.806-3.741-.994-1.857-1.02-2.965-.116-4.949.866-1.901 1.164-35.172 1.164-130.008V494h27l.1 12.75c.083 10.598 1.437 22.576 1.8 15.928.076-1.381.765-1.743 2.85-1.5 2.246.263 2.71-.045 2.53-1.678-.166-1.513.078-1.363 1 .614.995 2.132 1.229-2.483 1.27-25 .075-41.626 4.893-67.954 18.685-102.114 39.048-96.715 122.164-163.572 224.265-180.397C613.329 188.901 758.41 285.668 793.939 429c2.686 10.836 3.351 14.246 6.141 31.5.622 3.85 1.361 19.317 1.642 34.371.3 16.08.869 26.805 1.379 26 .609-.962.897-.476.965 1.629l.096 3 1.271-2.877 1.271-2.877.66 4.127c1.619 10.129 3.617-1.491 3.63-21.123L811 494h25.048l-.274 130.5c-.218 103.88-.019 130.5.976 130.5.688 0 1.25.375 1.25.833 0 1.245 2.98 1.007 3.128-.25.07-.596.304-1.983.519-3.083 1.895-9.672 2.237-35.294 2.291-171.7.052-128.99.287-154.834 1.416-155.5 4.169-2.463 4.766-9.816 1.146-14.118l-2.5-2.971v-88.423l2.423-1.906c4.483-3.526 4.277-9.133-.529-14.427-1.683-1.852-1.882-4.282-2.125-25.878-.26-23.074-.337-23.88-2.403-25.251-4.824-3.201-5.366-.618-5.366 25.553v23.735l-2.645 3.193L830.71 308h-88.532l-17.339-17.299c-34.292-34.212-71.549-58.437-111.839-72.72-8.742-3.099-8.306-2.088-7.487-17.388l.728-13.593H712l-.017 10.75c-.017 10.137-.159 10.884-2.5 13.105-4.662 4.422-1.778 13.055 4.402 13.177 1.134.022.797.642-1.135 2.083-4.13 3.081-3.49 5.092 2.6 8.176 8.42 4.264 8.65 4.111 8.65-5.756 0-7.768.185-8.56 2.25-9.625 9.377-4.835 9.033-10.505-.478-7.864-3.518.978-3.895.851-6.72-2.255-2.873-3.159-2.995-3.669-3.023-12.695l-.029-9.405 15.75.61c22.297.862 38.726 4.292 55.583 11.603 5.977 2.592 7.805 2.682 7.005.346-2.69-7.851-26.114-17.749-47.838-20.213-11.341-1.286-459.869-1.183-470 .108m149.476 17.605c-.013 5.363-.415 11.434-.893 13.493-.478 2.059-.58 3.569-.226 3.356.354-.213 8.743-2.262 18.643-4.552 48.784-11.286 100.146-10.916 144.5 1.042 12.746 3.436 16.115 4.226 14.25 3.339-.905-.431-1.25-4.162-1.25-13.511V187H426l-.024 9.75m-35.142 4.639c-2.653 1.315-3.657 5.914-1.784 8.171 1.991 2.399 6.824 1.81 8.098-.986 2.442-5.358-1.334-9.654-6.314-7.185m243.389.168c-4.016 2.812-1.922 9.443 2.982 9.443 4.996 0 7.576-6.079 3.966-9.345-2.282-2.066-4.103-2.091-6.948-.098m-294.568 2.272c-2.899 3.203-2.388 24.134.659 26.997 3.778 3.549 24.672 3.279 28.317-.366 3.42-3.421 3.365-24.533-.072-27.043-3.201-2.337-26.719-2.003-28.904.412m323.217-.173c-.994 1.2-1.372 4.946-1.372 13.589 0 15.663.093 15.755 15.888 15.755 15.823 0 15.612.209 15.612-15.402 0-16.062.482-15.598-16.206-15.598-10.461 0-12.777.276-13.922 1.656m4.678 5.126c.522.43 5.225.509 10.45.176l9.5-.607-10.45-.176c-5.747-.096-10.022.177-9.5.607m-433.366 5.687c-38.407 15.135-33.369 69.089 7.05 75.497 31.16 4.939 55.198-27.957 41.284-56.499-8.393-17.218-30.65-25.966-48.334-18.998m532.665-.963c-31.66 10.188-37.694 51.68-10.26 70.555 8.555 5.887 22.496 7.799 33.911 4.652 5.336-1.471 5.603-2.017 4.012-8.213-.641-2.497-.544-2.787.58-1.729.743.699 1.363 2.274 1.379 3.5.043 3.318 1.675 2.759 8.074-2.766 17.229-14.873 17.267-41.553.082-57.104-9.863-8.926-25.928-12.708-37.778-8.895m-94.664 2.234c-9.41.654-5.783 2.75 4.899 2.831 5.377.041 8.344-.238 6.916-.65-1.375-.397-1.825-.773-1-.837 1.333-.102 1.333-.222 0-1.084-.825-.533-2.4-.893-3.5-.8-1.1.094-4.392.336-7.315.54m-4.937 9.51c.67 2.022 19.332 2.286 20.1.285.507-1.32-.888-1.535-9.963-1.535-7.996 0-10.451.303-10.137 1.25M492.5 227.602c-108.674 10.768-198.962 81.475-232.421 182.013-7.968 23.94-15.556 68.308-12.249 71.615 1.716 1.716 2.798-2.482 3.54-13.73 3.646-55.322 34.703-119.567 77.9-161.145 46.087-44.36 109.168-71.93 171.48-74.946l14.25-.69v3.505c0 3.249.339 3.634 4.654 5.282 5.982 2.284 12.155 7.882 14.357 13.019l1.732 4.041 10.379 1.189c45.507 5.214 99.894 31.221 135.878 64.977l7.5 7.035-2.497 2.026c-1.373 1.114-2.723 1.729-3 1.366-.635-.832-12.899-11.394-19.503-16.796-32.594-26.661-82.807-48.28-122.75-52.849-5.135-.588-5.751-.463-5.76 1.164-.018 3.358-4.638 11.806-8.136 14.877-3.11 2.731-5.676 4.075-11.104 5.82-1.539.494-1.75 2.016-1.75 12.594V310h-8.875c-19.937 0-50.983 7.989-71.441 18.384-55.44 28.169-93.088 83.488-96.55 141.866-.582 9.818-.486 10.75 1.114 10.75 1.483 0 1.751-.961 1.749-6.25-.013-23.77 11.613-58.95 27.092-81.98 15.615-23.235 45.597-51.734 52.787-50.176 1.767.382 2.196.265 1.313-.36-2.438-1.725 27.178-17.074 30.492-15.803.788.303 1.15.105.812-.442-.535-.865-.141-1.054 2.017-.969.281.011 1.908-.702 3.615-1.585 2.449-1.266 3.344-1.345 4.24-.373.879.955.684 1.086-.865.583-1.97-.64-1.971-.627-.059.853 1.068.826 3.093 1.435 4.5 1.352 2.315-.135 2.273-.194-.441-.618-2.647-.414-2.765-.564-1-1.28 1.7-.69 1.737-.822.25-.882-4.73-.19-.245-2.593 6.75-3.617.55-.08 1.847-.511 2.882-.957 1.14-.491 2.659-.327 3.848.415 1.081.675 2.221.971 2.534.658.313-.313.044-.569-.597-.569-1.576 0-1.497-1.647.083-1.743.688-.041 3.852-.592 7.033-1.223 3.181-.631 6.631-.879 7.666-.55 1.036.328 2.172.129 2.526-.443.358-.58 4.162-1.041 8.584-1.041H515v21h5.928c37.446 0 80.966 20.545 108.441 51.192 4.329 4.828 8.191 8.58 8.584 8.337.392-.242.732.102.755.765.023.663 2.618 5.014 5.767 9.669 9.759 14.428 20.844 41.686 20.738 50.997-.025 2.19.084 2.26.99.641.7-1.25.678-2.568-.071-4.21-.654-1.437-.706-2.391-.13-2.391.528 0 1.269 1.233 1.648 2.74.378 1.507 1.286 3.339 2.019 4.072 1.583 1.583 1.653 1.165.369-2.211-.616-1.62-.616-2.744 0-3.125.529-.327.998.445 1.041 1.715.043 1.27.306 1.747.583 1.059.714-1.768 4.338-1.559 4.338.25 0 .825.862 1.5 1.917 1.5 1.054 0 2.089.519 2.301 1.153.211.634 1.087-.299 1.947-2.074 1.527-3.154 1.58-3.174 2.288-.903l.725 2.324.863-2.5.862-2.5-.201 2.5c-.162 1.999-.667 2.435-2.524 2.175-2.315-.324-2.317-.317-.504 2.45 1.448 2.21 1.885 2.429 2.145 1.075 1.185-6.153 3.181 4.167 3.181 16.447 0 5.577.118 5.853 2.5 5.853 2.443 0 2.5-.171 2.5-7.441 0-4.093.356-7.661.791-7.93.435-.269.601 1.167.37 3.191l-.421 3.68 2.88-2.898c2.955-2.974 11.508-8.762 14.63-9.901 2.335-.852 2.266-4.925-.309-18.271-5.907-30.608-22.88-63.195-46.191-88.685-8.476-9.268-8.618-9.557-5.853-11.924 1.798-1.541 2.315-1.203 10.007 6.527 18.175 18.267 35.452 47.145 44.064 73.652 2.499 7.691 8.032 33.226 8.032 37.067 0 .513.68.933 1.512.933 1.178 0 1.39-.827.961-3.75-1.284-8.739-1.032-16.75.527-16.75 1.022 0 1.468.956 1.4 3-.068 2.052.034 2.269.323.686.372-2.038.8-2.227 3.6-1.594 4.508 1.02 8.691 1.524 12.256 1.477 3.078-.041 3.08-.037 4.257 7.695.647 4.255 1.178 10.661 1.179 14.236.001 3.575.273 8.75.603 11.5l.601 5H782v-4.542c0-7.071-2.859-27.326-5.569-39.458C752.505 330.406 665.5 249.229 554 229.969c-12.061-2.083-49.732-3.533-61.5-2.367m211.155 14.227c-4.528 5.003.652 11.446 6.122 7.614 2.822-1.976 2.835-4.795.034-7.404-2.7-2.516-4.028-2.561-6.156-.21M505.138 247.1c-9.934 5.055-11.826 18.412-3.751 26.487C511.458 283.658 528 276.485 528 262.046c0-13.041-11.644-20.654-22.862-14.946m-261.888.629c-1.868.654-1.56 6.215.386 6.962 2.336.896 4.864-1.019 4.864-3.685 0-2.324-2.865-4.111-5.25-3.277m531.151 1.811c-.899 3.581 2.054 6.822 4.852 5.325 1.473-.789 2.199-.752 2.749.139.535.865.943.894 1.432.103.376-.609.303-1.107-.162-1.107-.466 0-.917-.936-1.003-2.08-.387-5.132-6.699-7.041-7.868-2.38M473.5 258.583c-25.007 3.86-48.904 11.938-73 24.679-11.318 5.984-14.362 8.267-12.933 9.701.758.761 5.248-1.085 15.5-6.372 26.793-13.817 50.315-21.453 76.92-24.969 6.744-.892 8.556-1.481 8.823-2.872.413-2.146-2.299-2.175-15.31-.167M798 281c0 .55.477 1 1.059 1s.781-.45.441-1-.816-1-1.059-1-.441.45-.441 1m-311.391 4.062c-75.553 8.767-143.029 62.856-168.406 134.995-5.014 14.253-9.299 37.588-6.316 34.393.488-.522 2.33-6.8 4.093-13.95 13.298-53.924 45.657-96.68 95.268-125.877 24.79-14.59 53.703-23.471 87.002-26.722 7.012-.685 12.75-1.555 12.75-1.934 0-1.765-12.862-2.242-24.391-.905M194 314.345c0 .74-.9 2.16-2 3.155-1.949 1.764-2 3.08-2 51.655V419h18.531c13.964 0 18.622-.308 18.896-1.25 4.612-15.806 12.732-37.038 19.187-50.168 2.455-4.995 3.596-8.081 2.535-6.857l-1.929 2.225-.713-2.225c-.392-1.224-.944-12.463-1.228-24.975l-.515-22.75h-25.382c-20.595 0-25.382.254-25.382 1.345m57.809 20.864c-.214 12.26-.327 22.41-.252 22.555.076.145 2.474-3.838 5.33-8.85 5.464-9.591 19.975-30.725 22.582-32.889 2.974-2.467 1.386-2.834-12.87-2.969l-14.402-.137-.388 22.29M753.3 322.72c4.105 5.379 10.048 13.961 13.208 19.071 3.159 5.109 5.8 9.159 5.868 9 .068-.16-.101-8.616-.376-18.791l-.5-18.5-12.831-.28-12.832-.281 7.463 9.781m25.309-8.897c-.304.493-.595 11.268-.646 23.943-.091 22.88-.073 23.084 2.49 28.14 1.419 2.802 2.846 5.094 3.17 5.094.325 0 .262-7.425-.138-16.5l-.728-16.5H793.314l-.793 19.75c-.437 10.863-.779 20.779-.761 22.037.027 1.845-.237 2.062-1.364 1.127-1.094-.908-1.396-.82-1.396.405 0 .859.457 1.846 1.016 2.191.559.346.782 1.009.494 1.473-.287.465 2.006 8.309 5.095 17.431L801.222 419h29.528l.597-2.986c.329-1.642 1.51-3.767 2.625-4.722 1.983-1.698 2.027-2.742 1.987-46.764l-.04-45.028-2.81-3.283-2.81-3.283-11.899.283-11.9.283-.5 36.668c-.275 20.167-.837 37.005-1.25 37.417-.413.411-.75.393-.75-.041s-.578-.31-1.284.276c-3.89 3.229-4.195.801-4.716-37.533l-.5-36.787-9.168-.286c-5.043-.158-9.418.116-9.723.609m-286.796 2.86c.721.289 1.584.253 1.916-.079.332-.332-.258-.568-1.312-.525-1.165.048-1.402.285-.604.604m-145.206 2.899c-1.106 2.882-.63 7.252.964 8.847 3.732 3.731 6.05.544 5.585-7.679-.181-3.194-5.413-4.127-6.549-1.168M455.5 327c-.34.55-.141 1 .441 1s1.059-.45 1.059-1-.198-1-.441-1-.719.45-1.059 1m-239.786.62c-.885.885-.949 45.839-.077 54.181l.637 6.094 3.113-.58c5.125-.954 5.079-.676 5.097-31.099l.016-28.716-4.036-.297c-2.22-.163-4.358.024-4.75.417m224.099 5.063c.721.289 1.584.253 1.916-.079.332-.332-.258-.568-1.312-.525-1.165.048-1.402.285-.604.604m-209.146 5.984c-.912.912-.819 38.56.098 39.932.95 1.42 4.52 1.42 5.47 0 .438-.656.741-.313.75.851.009 1.222.365 1.595.952 1 1.698-1.721 2.599-40.497.965-41.532-1.647-1.042-7.272-1.214-8.235-.251m269.158 4.314c-23.992 2.327-54.684 13.242-73.541 26.151-20.528 14.054-42.288 43.879-50.611 69.368-5.693 17.435-9.786 44.366-6.581 43.306.862-.285 1.723-2.761 2.221-6.386 4.163-30.329 10.261-47.954 23.498-67.92 8.833-13.324 26.764-31.24 37.849-37.818 1.142-.678 9.048 9.964 12.79 17.214l1.752 3.395-3.351 2.507C419.463 411.042 399 449.746 399 477.631c0 6.575 2.705 3.951 3.485-3.381 10.02-94.229 123.695-134.975 190.635-68.332C612.651 425.362 626 454.68 626 478.131V482h34v-7.89c0-29.59-15.752-63.057-41.943-89.112-31.602-31.439-73.561-46.35-118.232-42.017M317.36 357.664c-20.495 29.397-33.391 61.53-38.426 95.752-2.322 15.783-2.572 27.584-.585 27.584.997 0 1.512-2.544 1.974-9.75 2.357-36.741 15.935-75.38 38.369-109.185 4.569-6.885 8.308-12.867 8.308-13.292 0-2.944-3.891.645-9.64 8.891m495.354-3.045c-.871.872-.933 29.963-.07 33.185.503 1.876 1.195 2.247 3.737 2l3.119-.304.762-11c.419-6.05.644-13.925.5-17.5l-.262-6.5-3.536-.298c-1.944-.163-3.857.024-4.25.417m-26.635 21.964c.048 1.165.285 1.402.604.605.289-.722.253-1.585-.079-1.917-.332-.332-.568.258-.525 1.312m-284.764 26.36c-38.693 6.139-67.483 36.868-69.924 74.635-2.631 40.718 24.657 77.948 62.929 85.853 53.093 10.967 98.743-23.072 101.381-75.595 2.582-51.421-43.593-92.951-94.386-84.893M190 456.643c0 29.3.183 33.213 1.582 33.75 2.034.78 8.177.771 17.621-.027l7.506-.635.592-12.115c.801-16.371 4.615-40.79 8.218-52.616.395-1.295-2.005-1.5-17.531-1.5H190v33.143m626.653-32.866c-11.998.224-14.746.537-14.326 1.632 3.406 8.878 8.673 43.693 8.673 57.335V490h25.028l-.264-32.128c-.254-30.946-.338-32.17-2.264-33.25-1.296-.727-7.228-1.024-16.847-.845m-72.574 16.806c.048 1.165.285 1.402.604.605.289-.722.253-1.585-.079-1.917-.332-.332-.568.258-.525 1.312M685.158 448c0 1.375.227 1.938.504 1.25.278-.687.278-1.812 0-2.5-.277-.687-.504-.125-.504 1.25M680 453.059c0 .582.45.781 1 .441s1-.816 1-1.059-.45-.441-1-.441-1 .477-1 1.059M692.702 458c.313 3.025.733 5.688.933 5.917.701.801.158-6.439-.669-8.917-.538-1.614-.632-.551-.264 3M681 461c0 .55.45 1 1 1s1-.45 1-1-.45-1-1-1-1 .45-1 1m-380.5 5.85c-15.212 7.261-16.075 27.053-1.515 34.772 19.186 10.173 38.981-15.269 23.376-30.044-6.407-6.067-15.112-7.949-21.861-4.728m416 2.057c-9.616 2.39-16.634 12.529-14.937 21.579 3.45 18.386 27.804 22.113 36.187 5.539 7.242-14.319-5.797-30.958-21.25-27.118m-206.75 8.173c-7.015 4.086-4.184 15.92 3.808 15.92 3.305 0 8.442-4.658 8.442-7.655 0-6.311-7.23-11.189-12.25-8.265m-171.358 18.495c-.725 2.889 1.954 21.894 4.028 28.576l1.349 4.349-.011-4.731c-.007-2.983-.391-4.496-1.039-4.095-.578.357-.727.148-.34-.478.378-.612.236-4.844-.316-9.404-.553-4.561-1.106-10.205-1.229-12.542-.252-4.757-1.461-5.586-2.442-1.675m-90.781-.755c-.961 1.555 1.075 28.827 2.078 27.824.49-.49.547-3.279.397-19.394-.076-8.196-.895-10.986-2.475-8.43m29.787 7.93c.981 12.76 2.791 25.25 3.66 25.25.415 0 .519.9.232 2-.288 1.1-.133 2 .343 2 .477 0 .966 1.913 1.087 4.25.122 2.338.879 6.275 1.684 8.75 2.118 6.518 2.118.965-.001-9-.878-4.125-1.569-8.754-1.537-10.286.033-1.532-.294-2.567-.726-2.3-.432.267-.801-.955-.819-2.714-.136-13.05-1.727-26.7-3.111-26.7-1.251 0-1.379 1.377-.812 8.75M369 497.364c0 7.211 5.678 30.358 7.099 28.937.463-.463.188-3.307-.61-6.321s-1.919-9.08-2.49-13.48c-1.365-10.521-1.843-12.5-3.018-12.5-.54 0-.981 1.514-.981 3.364m31.411-1.991c-1.4 3.647 4.165 26.63 6.035 24.924.492-.448.527-.197.08.575-1.142 1.971 5.512 15.496 6.919 14.065.742-.754.541-1.452-.679-2.353-.954-.705-1.442-1.575-1.084-1.933.358-.358.225-.651-.297-.651s-1.547-2.138-2.278-4.75a969.864 969.864 0 0 0-3.099-10.75c-.974-3.3-2.083-8.729-2.466-12.065-.815-7.104-2.048-9.886-3.131-7.062m225.729.649c-.564 1.363-1.517 5.628-2.119 9.478-1.01 6.465-6.687 25.35-7.965 26.5-1.15 1.035-3.056 5.027-3.056 6.403 0 .787-.369 1.58-.819 1.764-.451.183-2.767 3.258-5.147 6.833C603.45 552.383 587 570.726 587 569.339c0-.229-.88.403-1.956 1.405-3.677 3.426-22.675 14.322-27.864 15.981-2.849.911-5.18 2.021-5.18 2.466 0 .445-.873.809-1.941.809s-2.219.45-2.559 1c-.814 1.317-.853 1.324 5.968-1.073 6.857-2.41 13.766-5.782 14.644-7.147.336-.523.786-.846 1-.719.846.507 4.888-1.254 4.888-2.128 0-.513.59-.933 1.311-.933.722 0 2.227-.852 3.345-1.894 1.117-1.041 3.34-2.572 4.938-3.401 2.791-1.448 16.605-14.974 21.655-21.205 10.273-12.673 18.989-31.728 22.185-48.5 1.496-7.851.695-12.788-1.294-7.978m31.621-1.4c-.283.483-.83 4.028-1.216 7.878-.386 3.85-1.163 8.885-1.727 11.19-1.642 6.71-.4 7.181 1.915.726 2.583-7.198 3.826-16.594 2.509-18.949-.531-.948-1.197-1.329-1.481-.845m30.868 7.128c-.363 4.262-.946 8.823-1.296 10.134-.477 1.788-.286 2.257.765 1.875.771-.28 1.274-1.063 1.117-1.739-.157-.677.125-1.746.627-2.375 1.234-1.55 2.411-11.822 1.598-13.942-1.305-3.399-2.166-1.548-2.811 6.047m91.621-6.194c-.687.748-1.259 3.516-1.27 6.152-.01 2.636-.672 9.695-1.469 15.687-1.425 10.71-1.306 13.214.574 12.052.521-.322.712-.966.424-1.432-.288-.466-.116-1.919.382-3.229 1-2.629 3.549-28.025 2.971-29.6-.206-.562-.901-.402-1.612.37m-29.676.325c-.3.485-1.003 6.11-1.564 12.5-1.075 12.265-2.387 21.816-3.795 27.619-.466 1.925-.526 4.625-.131 6l.717 2.5.205-2.5c.113-1.375.139-3.85.057-5.5-.12-2.414.067-2.707.959-1.5.9 1.217.995 1.091.503-.666-.334-1.191-.136-2.456.438-2.811.574-.355.769-1.743.432-3.084-.336-1.342-.186-2.439.335-2.439 1.278 0 3.5-18.088 3.102-25.25-.338-6.059-.392-6.27-1.258-4.869m-281.135 16.913c.901 1.59-1.27 4.429-2.707 3.54-.634-.392-.738-.153-.265.612.583.945 1.293.738 2.865-.834 1.747-1.747 1.868-2.297.732-3.351-1.095-1.017-1.216-1.011-.625.033m77.811 3.868c-.687.278-1.251 1.03-1.253 1.671-.002.841-5.094 1.205-18.25 1.305-31.854.24-31.747.235-31.747 1.745 0 1.4-13.923 3.401-15.761 2.265-2.318-1.433-3.637 1.255-1.699 3.463 1.266 1.442 1.429 1.969.46 1.489-.825-.41-.15.429 1.5 1.863 3.725 3.238 9.262 5.981 11.701 5.797 1.116-.084 1.572.299 1.157.97-.444.719-.099.885.978.471.915-.351 1.664-.194 1.664.349 0 .557 1.201.726 2.75.388 1.855-.405 2.318-.295 1.423.338-.956.675-.257 1.114 2.5 1.57 7.542 1.246 25.866.342 24.902-1.229-.208-.339.928-.665 2.525-.724 5.929-.217 23.9-10.995 23.9-14.334 0-.647.354-.959.786-.691.432.267.785-.412.785-1.509 0-1.732-.149-1.79-1.134-.442-1.468 2.008-2.437.981-2.437-2.584 0-2.812-1.482-3.489-4.75-2.171M686.988 516c-.792 1.627-.599 5.011.239 4.173.528-.528.746-1.796.483-2.817-.263-1.021-.588-1.631-.722-1.356m-218.041 2.66c-1.305 1.659-1.287 1.715.186.564 1.354-1.057 1.739-1 2.25.332.888 2.315.774 2.651-.633 1.856-.922-.52-.909-.339.05.691 1.641 1.765 5.492 1.88 7.05.212.952-1.019.586-1.152-1.83-.669-1.661.332-3.02.184-3.02-.33 0-.513-.586-1.735-1.303-2.715-1.246-1.705-1.364-1.702-2.75.059M549 522.981c0 .443.712 1.078 1.582 1.412 2.247.862 2.637.764 2.197-.556-.442-1.325-3.779-2.081-3.779-.856m-236.634 3.254c.334 1.246.613 3.079.62 4.074.008 1.066.469 1.528 1.121 1.125.724-.447.9-.033.51 1.197-.328 1.035.298 4.804 1.393 8.375 1.094 3.572 1.755 4.919 1.467 2.994-.287-1.925-.664-4.85-.838-6.5-.86-8.146-1.967-12.412-3.363-12.948-1.172-.449-1.379-.067-.91 1.683M475 526.5c.685.825 1.695 1.5 2.245 1.5.558 0 .449-.663-.245-1.5-.685-.825-1.695-1.5-2.245-1.5-.558 0-.449.663.245 1.5m-224.225.75c-.242.688-.11 2.375.293 3.75.637 2.175.746 2.013.832-1.25.102-3.808-.329-4.765-1.125-2.5m125.73.742c-.337.546-.181 1.765.348 2.71.789 1.41.933 1.232.804-.991-.174-3.008-.269-3.149-1.152-1.719m-32.426 2.591c.048 1.165.285 1.402.604.605.289-.722.253-1.585-.079-1.917-.332-.332-.568.258-.525 1.312m198.677-.919c.691.279 1.005.913.698 1.41-.307.497.178.621 1.078.275 1.722-.661.16-2.394-2.032-2.255-.55.035-.435.292.256.57m-58.37 2.532c.998.559 2.188.629 2.659.158.471-.472-.338-.924-1.806-1.011-2.287-.136-2.406-.016-.853.853M378.5 534c.34.55.816 1 1.059 1s.441-.45.441-1-.477-1-1.059-1-.781.45-.441 1m-31.936 3.293c.376.986.935 1.541 1.243 1.233.308-.307.001-1.114-.683-1.793-.988-.98-1.102-.865-.56.56m67.318 1.401c.621 1.207 1.576 2.471 2.123 2.809 1.713 1.059 1.088-.49-1.128-2.795l-2.124-2.208 1.129 2.194m4.829 8.394c.946 1.602 2.1 2.912 2.564 2.912.463 0 .491-.562.06-1.25-.43-.687-.794-1.881-.809-2.652-.014-.771-.816-1.519-1.781-1.662-1.665-.247-1.667-.112-.034 2.652m221.668 2.315c-1.716.765-4.416 3.09-6 5.166l-2.879 3.775-.305 108.578c-.168 59.718 0 112.403.374 117.078l.68 8.5 1.225-4.766c1.49-5.796 2.521-7.074 2.541-3.151.009 1.605.452 3.592.985 4.417.687 1.063.983-.248 1.016-4.5.043-5.376.194-5.807 1.455-4.142 1.24 1.638 2.256 1.772 8.589 1.136 4.535-.455 7.413-.35 7.811.287.346.554 4.116 1.333 8.379 1.731l7.75.723v-2.677c0-1.529.428-2.411 1-2.058.55.34 1 1.941 1 3.559 0 3.452 1.666 3.954 2.294.691l.434-2.25.136 2.25c.075 1.237.759 2.25 1.519 2.25.761 0 1.69 1.013 2.065 2.25.633 2.091.775 2.003 2.022-1.25 1.267-3.308 1.36-2.868 1.685 8 .19 6.325.735-43.713 1.211-111.195l.865-122.695-2.13-4.305c-3.838-7.756-5.288-8.271-24.101-8.55-12.375-.183-17.28.103-19.621 1.148M422 551.378c0 .207.788.995 1.75 1.75 1.586 1.243 1.621 1.208.378-.378-1.307-1.666-2.128-2.195-2.128-1.372m6.5 7.434c2.2 2.303 4.145 4.187 4.323 4.187.789.002-4.116-5.512-6.11-6.867-1.217-.828-.413.378 1.787 2.68m-206 9.198c-1.65 1.082-3.582 2.253-4.293 2.602-.711.349-2.173 2.361-3.25 4.471-1.899 3.724-1.956 6.429-1.94 91.627.021 104.012-.214 101.732 11.907 115.476 5.541 6.282 16.979 14.702 14.481 10.659-.446-.721-.274-.882.457-.43.644.398.957 1.07.695 1.493-.262.423 1.267 1.749 3.397 2.946 3.584 2.014 3.995 2.055 5.507.542.899-.899 1.937-1.331 2.308-.961.37.371.024 1.075-.769 1.565-1.644 1.016-1.533 1.151 2.314 2.805 1.594.686 2.544.774 2.191.203-.343-.555-.146-1.008.436-1.008s1.059.45 1.059 1 1.125 1 2.5 1 2.5.492 2.5 1.094c0 .736 1.719.88 5.25.442 3.778-.47 4.829-.36 3.75.39-1.312.912-1.296 1.045.123 1.059 1.448.013 1.635-2.534 1.741-23.735.065-13.062.401-64.025.747-113.25l.628-89.5-3.1-4.214c-5.264-7.156-7.144-7.7-27.639-7.99-16.47-.233-18.255-.087-21 1.714m215.131-1.222c-.313.507.651 1.999 2.143 3.317 1.788 1.579 2.142 1.713 1.04.395-.919-1.1-1.666-2.375-1.659-2.833.019-1.344-.907-1.878-1.524-.879m337.913 2.801c-4.519 1.655-8.104 4.7-10.139 8.611-1.512 2.906-2.209 225.8-.707 225.8 2.456 0 17.61-5.44 21.547-7.734 12.199-7.11 22.236-21.222 24.679-34.7 1.485-8.191 1.497-177.323.012-181.251-1.512-4.002-5.78-8.264-10.436-10.419-4.965-2.299-19.043-2.472-24.956-.307m-331.318 3.99c.95.991 1.942 1.587 2.205 1.324.263-.263-.514-1.074-1.726-1.803-2.107-1.265-2.128-1.243-.479.479m-89.668 15.917c-12.049 4.28-13.02 6.892-13.008 34.99.041 101.339.575 182.514 1.2 182.514.413 0 .75-4.124.75-9.165 0-6.443.371-9.29 1.25-9.584.688-.23 1.25-1.254 1.25-2.275 0-1.022.45-2.136 1-2.476.55-.34 1-1.491 1-2.559s.45-1.941 1-1.941.999.337.999.75c-.001.413 5.849.602 13 .421 8.842-.225 13.001.015 13.001.75 0 .593 1.8 1.079 4 1.079 2.205 0 4-.486 4-1.083 0-.596.563-.877 1.25-.625.688.252 1.137.964 1 1.583-.138.619.65 2.025 1.75 3.125 1.556 1.556 2 1.667 2 .5 0-.825-.45-1.5-1-1.5s-1-.9-1-2c0-5.26 4.204-.411 5.083 5.863l.65 4.637.301-4c.269-3.562.375-3.344.966 2l.664 6 .318-6.5c.312-6.371.331-6.411.957-2 1.05 7.407 2.254-78.651 1.896-135.5-.376-59.525-.14-57.706-8.019-61.666-4.714-2.369-30.66-3.326-36.258-1.338m243.942 4.766c-7.596 2.591-11.5 7.682-11.5 14.997 0 4.66 2.135 8.95 3.42 6.871.502-.813 1.307-.475 2.619 1.099 1.372 1.645 1.912 1.857 1.96.771.056-1.303.225-1.294 1.283.062 2.198 2.818 4.737 3.027 9.563.787 2.56-1.188 4.966-2.099 5.347-2.024.38.075.994-1.88 1.363-4.343.597-3.984.926-4.434 2.965-4.064 2.08.377 2.219.158 1.496-2.362-2.597-9.056-10.948-14.375-18.516-11.794m-173.906.779c-4.253 1.272-9.476 6.807-10.695 11.333-4.846 17.998 18.313 29.36 29.203 14.327 9.012-12.441-3.715-30.085-18.508-25.66m189.978 17.632c-.351.914-.107 2.149.542 2.744.872.801.977.728.405-.279-.446-.783-.251-1.686.46-2.125.777-.48.863-.993.233-1.382-.552-.341-1.289.128-1.64 1.042M589 614.5c0 .825.177 1.5.393 1.5.216 0 .652-.675.969-1.5.316-.825.139-1.5-.393-1.5-.533 0-.969.675-.969 1.5m-78.5.398c-13.281 3.34-18.5 17.9-10.415 29.06 7.861 10.853 22.453 10.467 30.373-.803 9.452-13.448-3.866-32.304-19.958-28.257m26.884 44.967c-10.294 4.795-13.119 17.5-5.654 25.425 11.869 12.599 32.013 2.805 28.279-13.75-2.267-10.051-13.58-15.889-22.625-11.675m-60.618 4.053-3.266 2.917-.276 70.083-.276 70.082h18.888l.332-23.168c.249-17.404.643-23.27 1.582-23.583.688-.229 1.25-1.122 1.25-1.985 0-1.218.418-1.088 1.867.583 1.029 1.186 3.05 2.153 4.5 2.153 1.991 0 2.633.502 2.633 2.059 0 1.132.422 1.798.939 1.479.516-.319 1.349.154 1.851 1.05 2.176 3.889 2.677-4.215 2.999-48.516.369-50.595.417-49.873-3.54-53.542-4.453-4.129-24.726-3.862-29.483.388m-53.172 12.348c-8.668 4.957-8.059-.093-8.366 69.307L414.955 807H457V686.392l-3.014-4.753c-3.884-6.124-7.514-7.644-18.204-7.623-6.718.014-9.02.439-12.188 2.25m-131.157 6.797-2.937 3.063V712.5h36l.279-12.648.279-12.648-3.397-3.602-3.397-3.602h-23.89l-2.937 3.063m416.981 1.906c-1.144.463-3.282 2.269-4.75 4.013L702 692.153v57.483c0 32.094.382 57.246.865 56.947.476-.294.709-1.783.519-3.309-.532-4.258.706-11.274 1.989-11.274.63 0 1.665-.831 2.299-1.846 1.392-2.229 13.729-3.386 24.768-2.322 6.882.662 6.948.697 7.936 4.168.896 3.146 1.037 3.256 1.401 1.088.571-3.404 2.825-5.567 3.626-3.481 1.037 2.703.647 9.943-.603 11.193-.933.933-.933 1.2 0 1.2.66 0 1.193.788 1.185 1.75-.013 1.496-.157 1.532-.985.25-.57-.883-.976-1.014-.985-.32-.008.65-1.028 1.376-2.265 1.614-1.393.269-.821.486 1.5.57L747 806v-55.55c0-60.875.219-58.564-6.041-63.831-3.023-2.544-3.49-2.617-16.286-2.556-7.245.035-14.11.443-15.255.906m-122.206 3.747c-7.917 5.133-7.722 3.685-7.632 56.784.052 31.066.447 48.017 1.164 50 1.053 2.913 1.09 2.855 1.302-2 .202-4.646.261-4.752.836-1.5.598 3.387 5.063 5.653 5.15 2.613.017-.612.629-.325 1.36.637 1.826 2.405 2.406 2.204 2.892-1 .246-1.627.539-.504.716 2.75.195 3.571.451 4.482.731 2.596l.431-2.903 1.169 2.324c3.395 6.752 3.606 4.262 4.003-47.193.214-27.678.526-50.88.694-51.56.415-1.681 7.251-2.927 7.756-1.413.21.632.843 1.149 1.406 1.149s.765-.675.448-1.5c-.445-1.16.231-1.5 2.985-1.5h3.561l-1.896-3.247c-4.806-8.228-18.287-10.736-27.076-5.037M614 701c0 .55.45 1 1 1s1-.45 1-1-.45-1-1-1-1 .45-1 1m-325 62.469c0 40.495.116 43.424 1.699 42.816.935-.359 1.226-.81.648-1.003-1.19-.396-.928-11.542.317-13.53.431-.689 1.104-3.277 1.495-5.752.637-4.025.686-3.844.465 1.715-.174 4.39.139 6.364 1.065 6.719.9.345 1.311-.427 1.311-2.465 0-3.724 1.662-3.836 3.251-.219 2.405 5.473 5.474 5.728 6.021.5.231-2.213.461-.916.56 3.167.092 3.804.434 6.65.76 6.325.886-.887 1.138-6.901 1.923-45.992l.718-35.75H289v43.469m244.121-26.8c-7.075 3.571-7.173 4.118-7.047 39.122l.112 31.29 9.398-.29c8.168-.253 9.399-.52 9.407-2.041.007-1.328.912-1.784 3.759-1.892l3.75-.142-4-.716-4-.716 5.309-.142c3.707-.099 5.099.198 4.614.983-.481.778.389.999 2.821.715 2.736-.319 3.467-.07 3.295 1.125-.164 1.145-1.978 1.681-7.13 2.108l-6.909.574 7.593.176 7.592.177.655-17.25c1.567-41.325.952-48.363-4.544-51.964-3.779-2.476-20.484-3.233-24.675-1.117M187 748.5c0 .825.45 1.5 1 1.5s1-.675 1-1.5-.45-1.5-1-1.5-1 .675-1 1.5m2.459 3.567c-.363.586-.445 1.281-.183 1.543s.743-.218 1.069-1.067c.676-1.762.1-2.072-.886-.476m647.541.255c0 .805.675 1.723 1.5 2.04.825.316 1.5.332 1.5.035 0-.297-.675-1.215-1.5-2.04-1.301-1.301-1.5-1.306-1.5-.035m-1.921 6.261c.048 1.165.285 1.402.604.605.289-.722.253-1.585-.079-1.917-.332-.332-.568.258-.525 1.312M394.158 782c0 1.375.227 1.938.504 1.25.278-.687.278-1.812 0-2.5-.277-.687-.504-.125-.504 1.25M245 796.393c0 .216.698.661 1.552.989.89.341 1.291.173.941-.393-.587-.951-2.493-1.406-2.493-.596m8 2.607c0 .55.45 1 1 1s1-.45 1-1-.45-1-1-1-1 .45-1 1m298 0c0 .55.702 1 1.559 1s1.281-.45.941-1c-.34-.55-1.041-1-1.559-1s-.941.45-.941 1m-287.985 2.25c-.01 1.176.723 1.724 2.235 1.671 1.503-.053 1.752-.268.75-.65-.825-.314-1.831-1.066-2.235-1.671-.453-.678-.74-.429-.75.65m3.798-.567c.721.289 1.584.253 1.916-.079.332-.332-.258-.568-1.312-.525-1.165.048-1.402.285-.604.604m128.746 3.849c-1.897 1.435-1.891 1.468.25 1.468 1.281 0 2.191-.623 2.191-1.5 0-1.81-.007-1.809-2.441.032M532 804l4.5.7-3.917.15c-2.154.082-3.66.407-3.346.72.313.314 3.876.219 7.916-.211l7.347-.782-5-.701c-2.75-.385-6.575-.673-8.5-.638-3.161.056-3.064.13 1 .762m47.813-.317c.721.289 1.584.253 1.916-.079.332-.332-.258-.568-1.312-.525-1.165.048-1.402.285-.604.604m15.825.817c-.33.86-.02 1.5.727 1.5.716 0 1.302-.675 1.302-1.5s-.327-1.5-.727-1.5c-.399 0-.985.675-1.302 1.5M632 806c0 .55.423 1 .941 1s1.219-.45 1.559-1c.34-.55-.084-1-.941-1s-1.559.45-1.559 1m163.861 3.059-2.361 2.06 2.75-1.675c1.513-.921 2.75-1.847 2.75-2.059 0-.781-.835-.335-3.139 1.674m-564.258 2.774c-.283.459.12.834.897.834s1.18-.375.897-.834c-.283-.458-.687-.833-.897-.833-.21 0-.614.375-.897.833M790 812c-.825.533-1.05.969-.5.969s1.675-.436 2.5-.969c.825-.533 1.05-.969.5-.969s-1.675.436-2.5.969m-553.834.876c-1.084.688-1.053.954.171 1.423 1.477.567 1.698 3 .39 4.307-.365.366-.475-.32-.243-1.523.352-1.829.08-2.079-1.657-1.528-1.569.498-1.889.327-1.306-.698.6-1.054.489-1.096-.496-.185-.698.644-2.001.921-2.897.615-1.158-.396-1.063-.117.33.967 1.077.838 2.613 1.272 3.414.965.842-.323 1.189-.127.823.465-.348.563.507 1.543 1.9 2.177 1.99.907 2.368.889 1.767-.085-.422-.682.509-.236 2.069.991 3.811 2.997 16.934 7.035 28.565 8.788 11.965 1.804 473.646 2.186 487.858.404 15.272-1.915 35.653-9.668 31.943-12.151-.794-.532-.135-.632 1.703-.257 2.05.417 2.57.308 1.643-.345-.948-.668-1.023-1.162-.25-1.64 5.288-3.268-4.174-2.604-13.393.939-18.121 6.966 1.001 6.495-263.847 6.492-257.729-.004-245.2.245-262.412-5.2-3.708-1.173-8.091-2.169-9.741-2.215-1.783-.049-2.903-.574-2.762-1.296.147-.749-.395-.971-1.414-.58-1.108.425-1.414.249-.929-.536.852-1.378.583-1.443-1.229-.294m125.584 70.83c1.238.238 3.262.238 4.5 0 1.238-.239.225-.434-2.25-.434s-3.488.195-2.25.434M380 884c-4.064.632-4.161.706-1 .762 1.925.035 5.75-.288 8.5-.716 4.729-.737 4.784-.778 1-.762-2.2.009-6.025.331-8.5.716m141.75-.294c1.237.238 3.263.238 4.5 0 1.237-.239.225-.434-2.25-.434s-3.487.195-2.25.434m16 0c1.237.238 3.263.238 4.5 0 1.237-.239.225-.434-2.25-.434s-3.487.195-2.25.434m96 .04c5.638.178 14.862.178 20.5 0s1.025-.324-10.25-.324-15.888.146-10.25.324m-48 .96c1.237.238 3.263.238 4.5 0 1.237-.239.225-.434-2.25-.434s-3.487.195-2.25.434m120 0c1.237.238 3.263.238 4.5 0 1.237-.239.225-.434-2.25-.434s-3.487.195-2.25.434m-232 1c1.238.238 3.262.238 4.5 0 1.238-.239.225-.434-2.25-.434s-3.488.195-2.25.434m24 0c1.238.238 3.262.238 4.5 0 1.238-.239.225-.434-2.25-.434s-3.488.195-2.25.434m26 1.026c2.337.211 6.163.211 8.5 0 2.337-.21.425-.383-4.25-.383s-6.587.173-4.25.383" fill-rule="evenodd"/></svg>